<svg viewBox="0 0 1000 680" xmlns="http://www.w3.org/2000/svg" font-family="Segoe UI, Arial, sans-serif">
  <rect width="1000" height="680" fill="#f0f4f8" rx="12"/>
  <text x="500" y="36" text-anchor="middle" font-size="18" font-weight="bold" fill="#1a2e4a">Backend — NestJS</text>
  <text x="500" y="56" text-anchor="middle" font-size="12" fill="#5a7184">Diagrama C4 — Nivel 3: Código Backend</text>
  <line x1="60" y1="66" x2="940" y2="66" stroke="#c0cdd8" stroke-width="1.5"/>

  <!-- AppModule central -->
  <rect x="390" y="90" width="220" height="90" rx="10" fill="#1e3a5f"/>
  <text x="500" y="125" text-anchor="middle" font-size="13" font-weight="bold" fill="#fff">AppModule</text>
  <text x="500" y="143" text-anchor="middle" font-size="10" fill="#93c5fd">app.module.ts</text>
  <text x="500" y="158" text-anchor="middle" font-size="10" fill="#93c5fd">Raíz de la aplicación NestJS</text>

  <!-- main.ts -->
  <rect x="780" y="90" width="160" height="70" rx="8" fill="#374151"/>
  <text x="860" y="120" text-anchor="middle" font-size="12" font-weight="bold" fill="#fff">main.ts</text>
  <text x="860" y="138" text-anchor="middle" font-size="10" fill="#9ca3af">Bootstrap / CORS</text>
  <text x="860" y="152" text-anchor="middle" font-size="10" fill="#9ca3af">Puerto 3001</text>
  <line x1="780" y1="125" x2="612" y2="125" stroke="#6b7280" stroke-width="1.5" stroke-dasharray="4,3" marker-end="url(#b1)"/>

  <!-- PrismaModule -->
  <rect x="60" y="90" width="180" height="70" rx="8" fill="#7c3aed"/>
  <text x="150" y="120" text-anchor="middle" font-size="12" font-weight="bold" fill="#fff">PrismaModule</text>
  <text x="150" y="138" text-anchor="middle" font-size="10" fill="#ddd6fe">prisma.service.ts</text>
  <text x="150" y="152" text-anchor="middle" font-size="10" fill="#ddd6fe">prisma.module.ts</text>
  <line x1="242" y1="125" x2="388" y2="125" stroke="#7c3aed" stroke-width="1.5" marker-end="url(#b2)"/>

  <!-- Common -->
  <rect x="60" y="220" width="180" height="80" rx="8" fill="#374151"/>
  <text x="150" y="250" text-anchor="middle" font-size="12" font-weight="bold" fill="#fff">Common</text>
  <text x="150" y="268" text-anchor="middle" font-size="10" fill="#9ca3af">HttpExceptionFilter</text>
  <text x="150" y="283" text-anchor="middle" font-size="10" fill="#9ca3af">ResponseInterceptor</text>
  <line x1="242" y1="260" x2="388" y2="170" stroke="#6b7280" stroke-width="1.5" stroke-dasharray="4,3" marker-end="url(#b3)"/>

  <!-- Módulos de negocio -->
  <!-- TurnosModule -->
  <rect x="60" y="370" width="175" height="120" rx="8" fill="#dc2626"/>
  <text x="147" y="400" text-anchor="middle" font-size="12" font-weight="bold" fill="#fff">TurnosModule</text>
  <line x1="80" y1="410" x2="220" y2="410" stroke="#fca5a5" stroke-width="1"/>
  <text x="147" y="427" text-anchor="middle" font-size="10" fill="#fee2e2">turnos.controller.ts</text>
  <text x="147" y="442" text-anchor="middle" font-size="10" fill="#fee2e2">turnos.service.ts</text>
  <text x="147" y="457" text-anchor="middle" font-size="10" fill="#fee2e2">turnos.repository.ts</text>
  <text x="147" y="472" text-anchor="middle" font-size="10" fill="#fee2e2">turno.entity.ts | DTOs</text>

  <!-- MedicosModule -->
  <rect x="260" y="370" width="175" height="120" rx="8" fill="#0369a1"/>
  <text x="347" y="400" text-anchor="middle" font-size="12" font-weight="bold" fill="#fff">MedicosModule</text>
  <line x1="280" y1="410" x2="420" y2="410" stroke="#7dd3fc" stroke-width="1"/>
  <text x="347" y="427" text-anchor="middle" font-size="10" fill="#e0f2fe">medicos.controller.ts</text>
  <text x="347" y="442" text-anchor="middle" font-size="10" fill="#e0f2fe">medicos.service.ts</text>
  <text x="347" y="457" text-anchor="middle" font-size="10" fill="#e0f2fe">medicos.repository.ts</text>
  <text x="347" y="472" text-anchor="middle" font-size="10" fill="#e0f2fe">medico.entity.ts | DTOs</text>

  <!-- PacientesModule -->
  <rect x="460" y="370" width="175" height="120" rx="8" fill="#15803d"/>
  <text x="547" y="400" text-anchor="middle" font-size="12" font-weight="bold" fill="#fff">PacientesModule</text>
  <line x1="480" y1="410" x2="620" y2="410" stroke="#86efac" stroke-width="1"/>
  <text x="547" y="427" text-anchor="middle" font-size="10" fill="#dcfce7">pacientes.controller.ts</text>
  <text x="547" y="442" text-anchor="middle" font-size="10" fill="#dcfce7">pacientes.service.ts</text>
  <text x="547" y="457" text-anchor="middle" font-size="10" fill="#dcfce7">pacientes.repository.ts</text>
  <text x="547" y="472" text-anchor="middle" font-size="10" fill="#dcfce7">paciente.entity.ts | DTOs</text>

  <!-- EspecialidadesModule -->
  <rect x="660" y="370" width="175" height="120" rx="8" fill="#b45309"/>
  <text x="747" y="395" text-anchor="middle" font-size="11" font-weight="bold" fill="#fff">EspecialidadesModule</text>
  <line x1="680" y1="405" x2="820" y2="405" stroke="#fcd34d" stroke-width="1"/>
  <text x="747" y="422" text-anchor="middle" font-size="10" fill="#fef3c7">especialidades.controller.ts</text>
  <text x="747" y="437" text-anchor="middle" font-size="10" fill="#fef3c7">especialidades.service.ts</text>
  <text x="747" y="452" text-anchor="middle" font-size="10" fill="#fef3c7">especialidades.repository.ts</text>
  <text x="747" y="467" text-anchor="middle" font-size="10" fill="#fef3c7">especialidad.entity.ts | DTOs</text>
  <text x="747" y="482" text-anchor="middle" font-size="10" fill="#fef3c7"></text>

  <!-- ConsultoriosModule -->
  <rect x="260" y="540" width="430" height="90" rx="8" fill="#0f766e"/>
  <text x="475" y="568" text-anchor="middle" font-size="12" font-weight="bold" fill="#fff">ConsultoriosModule</text>
  <line x1="280" y1="578" x2="670" y2="578" stroke="#5eead4" stroke-width="1"/>
  <text x="370" y="596" text-anchor="middle" font-size="10" fill="#ccfbf1">consultorios.controller.ts  |  consultorios.service.ts</text>
  <text x="370" y="612" text-anchor="middle" font-size="10" fill="#ccfbf1">consultorios.repository.ts  |  consultorio.entity.ts  |  DTOs</text>

  <!-- Prisma DB -->
  <rect x="780" y="540" width="160" height="90" rx="8" fill="#ea580c"/>
  <text x="860" y="575" text-anchor="middle" font-size="12" font-weight="bold" fill="#fff">PostgreSQL</text>
  <text x="860" y="593" text-anchor="middle" font-size="10" fill="#fed7aa">schema.prisma</text>
  <text x="860" y="610" text-anchor="middle" font-size="10" fill="#fed7aa">migrations/</text>

  <!-- Flechas AppModule -> módulos -->
  <line x1="450" y1="182" x2="147" y2="368" stroke="#1e3a5f" stroke-width="1.5" marker-end="url(#b4)"/>
  <line x1="480" y1="182" x2="347" y2="368" stroke="#1e3a5f" stroke-width="1.5" marker-end="url(#b4)"/>
  <line x1="500" y1="182" x2="547" y2="368" stroke="#1e3a5f" stroke-width="1.5" marker-end="url(#b4)"/>
  <line x1="530" y1="182" x2="747" y2="368" stroke="#1e3a5f" stroke-width="1.5" marker-end="url(#b4)"/>
  <line x1="490" y1="182" x2="430" y2="538" stroke="#1e3a5f" stroke-width="1.5" stroke-dasharray="4,3" marker-end="url(#b4)"/>

  <!-- Módulos -> PostgreSQL -->
  <line x1="236" y1="490" x2="860" y2="538" stroke="#ea580c" stroke-width="1" stroke-dasharray="3,3" marker-end="url(#b5)"/>
  <line x1="690" y1="490" x2="860" y2="538" stroke="#ea580c" stroke-width="1" stroke-dasharray="3,3" marker-end="url(#b5)"/>

  <defs>
    <marker id="b1" markerWidth="8" markerHeight="8" refX="7" refY="3" orient="auto"><path d="M0,0 L0,6 L8,3 z" fill="#6b7280"/></marker>
    <marker id="b2" markerWidth="8" markerHeight="8" refX="7" refY="3" orient="auto"><path d="M0,0 L0,6 L8,3 z" fill="#7c3aed"/></marker>
    <marker id="b3" markerWidth="8" markerHeight="8" refX="7" refY="3" orient="auto"><path d="M0,0 L0,6 L8,3 z" fill="#6b7280"/></marker>
    <marker id="b4" markerWidth="8" markerHeight="8" refX="7" refY="3" orient="auto"><path d="M0,0 L0,6 L8,3 z" fill="#1e3a5f"/></marker>
    <marker id="b5" markerWidth="8" markerHeight="8" refX="7" refY="3" orient="auto"><path d="M0,0 L0,6 L8,3 z" fill="#ea580c"/></marker>
  </defs>
</svg>
